<?xml version="1.0" encoding="UTF-8"?>
<svg width="410px" height="78px" viewBox="0 0 410 78" version="1.1" xmlns="http://www.w3.org/2000/svg" xmlns:xlink="http://www.w3.org/1999/xlink">
    <!-- Generator: Sketch 51.2 (57519) - http://www.bohemiancoding.com/sketch -->
    <title>Logo (Type + Mark) (inverted)</title>
    <desc>Created with Sketch.</desc>
    <defs></defs>
    <g id="Logo-(Type-+-Mark)-(inverted)" stroke="none" stroke-width="1" fill="none" fill-rule="evenodd">
        <path d="M111.662,54.432 C109.249988,54.432 106.892012,54.135003 104.588,53.541 C102.283988,52.946997 100.448007,52.2000045 99.08,51.3 L101.888,45.252 C103.184006,46.0800041 104.749991,46.7549974 106.586,47.277 C108.422009,47.7990026 110.221991,48.06 111.986,48.06 C115.550018,48.06 117.332,47.1780088 117.332,45.414 C117.332,44.5859959 116.846005,43.9920018 115.874,43.632 C114.901995,43.2719982 113.40801,42.9660013 111.392,42.714 C109.015988,42.3539982 107.054008,41.9400023 105.506,41.472 C103.957992,41.0039977 102.617006,40.1760059 101.483,38.988 C100.348994,37.7999941 99.782,36.108011 99.782,33.912 C99.782,32.0759908 100.312995,30.4470071 101.375,29.025 C102.437005,27.6029929 103.98499,26.496004 106.019,25.704 C108.05301,24.911996 110.455986,24.516 113.228,24.516 C115.28001,24.516 117.32299,24.7409977 119.357,25.191 C121.39101,25.6410022 123.073993,26.261996 124.406,27.054 L121.598,33.048 C119.041987,31.6079928 116.252015,30.888 113.228,30.888 C111.427991,30.888 110.078004,31.1399975 109.178,31.644 C108.277996,32.1480025 107.828,32.795996 107.828,33.588 C107.828,34.4880045 108.313995,35.1179982 109.286,35.478 C110.258005,35.8380018 111.805989,36.1799984 113.93,36.504 C116.306012,36.900002 118.249992,37.3229978 119.762,37.773 C121.274008,38.2230023 122.587994,39.0419941 123.704,40.23 C124.820006,41.4180059 125.378,43.0739894 125.378,45.198 C125.378,46.998009 124.838005,48.599993 123.758,50.004 C122.677995,51.408007 121.10301,52.4969961 119.033,53.271 C116.96299,54.0450039 114.506014,54.432 111.662,54.432 Z M148.814,24.516 C151.514013,24.516 153.970989,25.1369938 156.185,26.379 C158.399011,27.6210062 160.135994,29.3669888 161.396,31.617 C162.656006,33.8670113 163.286,36.4859851 163.286,39.474 C163.286,42.4620149 162.656006,45.0809888 161.396,47.331 C160.135994,49.5810113 158.399011,51.3269938 156.185,52.569 C153.970989,53.8110062 151.514013,54.432 148.814,54.432 C145.105981,54.432 142.190011,53.2620117 140.066,50.922 L140.066,64.476 L131.642,64.476 L131.642,24.948 L139.688,24.948 L139.688,28.296 C141.77601,25.7759874 144.81798,24.516 148.814,24.516 Z M147.356,47.52 C149.516011,47.52 151.288993,46.7910073 152.675,45.333 C154.061007,43.8749927 154.754,41.9220122 154.754,39.474 C154.754,37.0259878 154.061007,35.0730073 152.675,33.615 C151.288993,32.1569927 149.516011,31.428 147.356,31.428 C145.195989,31.428 143.423007,32.1569927 142.037,33.615 C140.650993,35.0730073 139.958,37.0259878 139.958,39.474 C139.958,41.9220122 140.650993,43.8749927 142.037,45.333 C143.423007,46.7910073 145.195989,47.52 147.356,47.52 Z M181.214,24.516 C185.714022,24.516 189.169988,25.5869893 191.582,27.729 C193.994012,29.8710107 195.2,33.1019784 195.2,37.422 L195.2,54 L187.316,54 L187.316,50.382 C185.731992,53.0820135 182.780022,54.432 178.46,54.432 C176.227989,54.432 174.293008,54.0540038 172.655,53.298 C171.016992,52.5419962 169.766004,51.4980067 168.902,50.166 C168.037996,48.8339933 167.606,47.3220085 167.606,45.63 C167.606,42.9299865 168.62299,40.8060077 170.657,39.258 C172.69101,37.7099923 175.831979,36.936 180.08,36.936 L186.776,36.936 C186.776,35.0999908 186.218006,33.687005 185.102,32.697 C183.985994,31.706995 182.312011,31.212 180.08,31.212 C178.531992,31.212 177.011007,31.4549976 175.517,31.941 C174.022993,32.4270024 172.754005,33.0839959 171.71,33.912 L168.686,28.026 C170.270008,26.9099944 172.168989,26.0460031 174.383,25.434 C176.597011,24.8219969 178.873988,24.516 181.214,24.516 Z M180.566,48.762 C182.006007,48.762 183.283994,48.4290033 184.4,47.763 C185.516006,47.0969967 186.307998,46.1160065 186.776,44.82 L186.776,41.85 L180.998,41.85 C177.541983,41.85 175.814,42.9839887 175.814,45.252 C175.814,46.3320054 176.236996,47.1869969 177.083,47.817 C177.929004,48.4470032 179.089993,48.762 180.566,48.762 Z M211.94,28.782 C212.948005,27.377993 214.306991,26.3160036 216.017,25.596 C217.727009,24.8759964 219.697989,24.516 221.93,24.516 L221.93,32.292 C220.993995,32.2199996 220.364002,32.184 220.04,32.184 C217.627988,32.184 215.738007,32.8589932 214.37,34.209 C213.001993,35.5590068 212.318,37.5839865 212.318,40.284 L212.318,54 L203.894,54 L203.894,24.948 L211.94,24.948 L211.94,28.782 Z M240.506,42.606 L236.456,46.602 L236.456,54 L228.032,54 L228.032,13.932 L236.456,13.932 L236.456,36.612 L248.768,24.948 L258.812,24.948 L246.716,37.26 L259.892,54 L249.686,54 L240.506,42.606 Z M273.554,54.432 C271.141988,54.432 268.784012,54.135003 266.48,53.541 C264.175988,52.946997 262.340007,52.2000045 260.972,51.3 L263.78,45.252 C265.076006,46.0800041 266.641991,46.7549974 268.478,47.277 C270.314009,47.7990026 272.113991,48.06 273.878,48.06 C277.442018,48.06 279.224,47.1780088 279.224,45.414 C279.224,44.5859959 278.738005,43.9920018 277.766,43.632 C276.793995,43.2719982 275.30001,42.9660013 273.284,42.714 C270.907988,42.3539982 268.946008,41.9400023 267.398,41.472 C265.849992,41.0039977 264.509006,40.1760059 263.375,38.988 C262.240994,37.7999941 261.674,36.108011 261.674,33.912 C261.674,32.0759908 262.204995,30.4470071 263.267,29.025 C264.329005,27.6029929 265.87699,26.496004 267.911,25.704 C269.94501,24.911996 272.347986,24.516 275.12,24.516 C277.17201,24.516 279.21499,24.7409977 281.249,25.191 C283.28301,25.6410022 284.965993,26.261996 286.298,27.054 L283.49,33.048 C280.933987,31.6079928 278.144015,30.888 275.12,30.888 C273.319991,30.888 271.970004,31.1399975 271.07,31.644 C270.169996,32.1480025 269.72,32.795996 269.72,33.588 C269.72,34.4880045 270.205995,35.1179982 271.178,35.478 C272.150005,35.8380018 273.697989,36.1799984 275.822,36.504 C278.198012,36.900002 280.141992,37.3229978 281.654,37.773 C283.166008,38.2230023 284.479994,39.0419941 285.596,40.23 C286.712006,41.4180059 287.27,43.0739894 287.27,45.198 C287.27,46.998009 286.730005,48.599993 285.65,50.004 C284.569995,51.408007 282.99501,52.4969961 280.925,53.271 C278.85499,54.0450039 276.398014,54.432 273.554,54.432 Z M339.65,24.948 L329.12,54 L321.02,54 L314.486,35.964 L307.736,54 L299.636,54 L289.16,24.948 L297.098,24.948 L303.956,44.604 L311.084,24.948 L318.212,24.948 L325.124,44.604 L332.198,24.948 L339.65,24.948 Z M355.418,24.516 C359.918023,24.516 363.373988,25.5869893 365.786,27.729 C368.198012,29.8710107 369.404,33.1019784 369.404,37.422 L369.404,54 L361.52,54 L361.52,50.382 C359.935992,53.0820135 356.984022,54.432 352.664,54.432 C350.431989,54.432 348.497008,54.0540038 346.859,53.298 C345.220992,52.5419962 343.970004,51.4980067 343.106,50.166 C342.241996,48.8339933 341.81,47.3220085 341.81,45.63 C341.81,42.9299865 342.82699,40.8060077 344.861,39.258 C346.89501,37.7099923 350.035979,36.936 354.284,36.936 L360.98,36.936 C360.98,35.0999908 360.422006,33.687005 359.306,32.697 C358.189994,31.706995 356.516011,31.212 354.284,31.212 C352.735992,31.212 351.215007,31.4549976 349.721,31.941 C348.226993,32.4270024 346.958005,33.0839959 345.914,33.912 L342.89,28.026 C344.474008,26.9099944 346.372989,26.0460031 348.587,25.434 C350.801011,24.8219969 353.077988,24.516 355.418,24.516 Z M354.77,48.762 C356.210007,48.762 357.487994,48.4290033 358.604,47.763 C359.720006,47.0969967 360.511998,46.1160065 360.98,44.82 L360.98,41.85 L355.202,41.85 C351.745983,41.85 350.018,42.9839887 350.018,45.252 C350.018,46.3320054 350.440996,47.1869969 351.287,47.817 C352.133004,48.4470032 353.293993,48.762 354.77,48.762 Z M395.27,24.516 C397.970014,24.516 400.426989,25.1369938 402.641,26.379 C404.855011,27.6210062 406.591994,29.3669888 407.852,31.617 C409.112006,33.8670113 409.742,36.4859851 409.742,39.474 C409.742,42.4620149 409.112006,45.0809888 407.852,47.331 C406.591994,49.5810113 404.855011,51.3269938 402.641,52.569 C400.426989,53.8110062 397.970014,54.432 395.27,54.432 C391.561981,54.432 388.646011,53.2620117 386.522,50.922 L386.522,64.476 L378.098,64.476 L378.098,24.948 L386.144,24.948 L386.144,28.296 C388.23201,25.7759874 391.27398,24.516 395.27,24.516 Z M393.812,47.52 C395.972011,47.52 397.744993,46.7910073 399.131,45.333 C400.517007,43.8749927 401.21,41.9220122 401.21,39.474 C401.21,37.0259878 400.517007,35.0730073 399.131,33.615 C397.744993,32.1569927 395.972011,31.428 393.812,31.428 C391.651989,31.428 389.879007,32.1569927 388.493,33.615 C387.106993,35.0730073 386.414,37.0259878 386.414,39.474 C386.414,41.9220122 387.106993,43.8749927 388.493,45.333 C389.879007,46.7910073 391.651989,47.52 393.812,47.52 Z" id="sparkswap" fill="#FFFFFF"></path>
        <path d="M39,78 C17.4608948,78 0,60.5391052 0,39 C0,17.4608948 17.4608948,0 39,0 C60.5391052,0 78,17.4608948 78,39 C78,60.5391052 60.5391052,78 39,78 Z M19,62 C30.60354,56.9768934 42.0664382,52.0145501 53.7217464,46.9690728 C49.7119613,42.3661707 45.8452118,37.9283273 42.0921727,33.6204753 C47.7693102,27.7040561 53.3378244,21.9006992 59,16 C47.4350617,21.0022476 35.9416412,25.97366 24.2851361,31.0155096 C28.3107808,35.6329224 32.1868066,40.0786257 35.9287739,44.3707579 C30.2630075,50.2711548 24.6831222,56.081767 19,62 Z" id="Combined-Shape" fill="#FFFFFF"></path>
    </g>
</svg>