<?xml version="1.0" encoding="utf-8"?>
<!-- Generator: Adobe Illustrator 23.0.4, SVG Export Plug-In . SVG Version: 6.00 Build 0)  -->
<svg version="1.1" id="Layer_1" xmlns="http://www.w3.org/2000/svg" xmlns:xlink="http://www.w3.org/1999/xlink" x="0px" y="0px"
	 viewBox="0 0 206 60.1" style="enable-background:new 0 0 206 60.1;" xml:space="preserve">
<style type="text/css">
	.st0{fill:#73838E;}
	.st1{fill-rule:evenodd;clip-rule:evenodd;fill:#73838E;}
	.st2{fill:none;stroke:url(#SVGID_1_);stroke-width:3;stroke-linecap:round;stroke-miterlimit:10;}
	.st3{fill:none;stroke:url(#SVGID_2_);stroke-width:3;stroke-linecap:round;stroke-miterlimit:10;stroke-dasharray:6.596,6.596;}
	.st4{fill:none;stroke:url(#SVGID_3_);stroke-width:3;stroke-linecap:round;stroke-miterlimit:10;}
	.st5{opacity:0.5;fill-rule:evenodd;clip-rule:evenodd;fill:none;stroke:#73838E;stroke-width:2;stroke-miterlimit:10;}
</style>
<g>
	<g>
		<path class="st0" d="M160.1,40c-0.1-0.1-0.2-0.1-0.2-0.2c0.3-0.3,0.7-0.6,1-0.9c0.6-0.6,1.3-1.2,1.9-1.7c0.2-0.2,0.4-0.4,0.7-0.6
			c0.1-0.1,0.1-0.1,0.2-0.1c0.1,0.2,0.2,0.2,0.4,0.2c1.3,0,2.6,0,3.9,0c0.8,0,1.6,0,2.3,0c0,0,0,0,0.1,0c0.1,0.1,0,0.2,0,0.3
			c0,0.7,0,1.5,0,2.2c0,0.4,0.1,0.7,0.5,0.8c0,0,0,0,0,0.1C167.2,40,163.7,40,160.1,40z"/>
		<path class="st0" d="M188.2,40C188.2,40,188.2,40,188.2,40c-1.7,0-3.3,0-5,0c0,0,0,0,0-0.1c0.1,0,0.1,0,0.2,0c1.4,0,2.7,0,4.1,0
			C187.7,40,188,40,188.2,40z"/>
		<path class="st0" d="M183.2,40C183.2,40,183.2,40,183.2,40c-0.8,0-1.5,0-2.3,0c0,0,0,0,0,0c0.1-0.1,0.2-0.1,0.3-0.1
			c0.6,0,1.2,0,1.7,0C183.1,39.9,183.2,39.9,183.2,40z"/>
		<path class="st0" d="M173.4,40C173.4,40,173.4,40,173.4,40c-0.6,0-1.3,0-1.9,0c0,0,0-0.1,0-0.1c0.1,0,0.2,0,0.2,0
			c0.5,0,0.9,0,1.4,0C173.3,39.9,173.4,39.9,173.4,40z"/>
		<path class="st0" d="M171.5,40C171.5,40,171.5,40,171.5,40c-0.2,0-0.5,0-0.7,0c0,0,0,0,0,0C171.1,39.9,171.3,39.9,171.5,40z"/>
		<path class="st0" d="M193,24.9c-0.1-0.1-0.1-0.2,0-0.3C193,24.7,193,24.8,193,24.9z"/>
		<path class="st0" d="M193,35.4c-0.1-0.1-0.1-0.2,0-0.3C193,35.2,193,35.3,193,35.4z"/>
		<path class="st0" d="M183.2,40c-0.8,0-1.5,0-2.3,0c-0.4,0-0.7-0.3-0.9-0.7c-1.5-2.9-3-5.9-4.5-8.8c-0.4-0.8-0.9-1.7-1.3-2.5
			c0-0.1-0.1-0.2-0.1-0.2c-0.1,0,0,0.1,0,0.2c0,3.7,0,7.4,0,11.1c0,0.1,0,0.2,0,0.3c-0.1-0.1-0.1-0.2-0.1-0.3c0-1.6,0-3.2,0-4.8
			c0-2.1,0-4.2,0-6.2c0-0.2,0-0.4-0.1-0.6c-0.7-1.4-1.5-2.8-2.2-4.2c-0.4-0.8-0.8-1.6-1.3-2.4c0,0,0,0,0,0c0,0,0,0,0,0
			c0,0.1,0,0.2,0,0.2c0,5.1,0,10.1,0,15.2c0,0.1,0,0.2-0.1,0.3c0,0,0,0,0,0c0-0.1,0-0.2,0-0.3c0-5.1,0-10.2,0-15.4
			c0-0.1,0-0.3,0-0.4c0-0.3,0.2-0.5,0.5-0.5c0.4,0,0.8,0,1.2,0c0.4,0,0.8,0,1.2,0c0.4,0,0.7,0.2,0.9,0.6c1.9,3.8,3.9,7.6,5.8,11.4
			c0,0.1,0.1,0.2,0.2,0.2c0.1,0,0.1,0.1,0.2,0.2c0.8,1.5,1.5,2.9,2.3,4.4c0.4,0.7,0.8,1.5,1.2,2.2c0,0.1,0.1,0.2,0.1,0.3
			c0,0.3-0.1,0.6-0.4,0.7C183.4,40,183.3,40,183.2,40z"/>
		<path class="st0" d="M163.6,36.5c-0.4,0.3-0.7,0.7-1.1,1c-0.6,0.6-1.3,1.2-1.9,1.7c-0.2,0.2-0.4,0.4-0.6,0.6c0,0-0.1,0.1-0.2,0.1
			c-0.1-0.2-0.1-0.4-0.1-0.6c0-4.7,0-9.4,0-14.1c0-1.5,0-3,0-4.5c0-0.1,0-0.1,0-0.2c0-0.4,0.1-0.5,0.5-0.5c0.9,0,1.8,0,2.7,0
			c0.5,0,0.6,0.2,0.6,0.7c0,5.1,0,10.2,0,15.2C163.6,36.1,163.6,36.3,163.6,36.5z"/>
		<path class="st0" d="M183.8,39.3c-0.3-0.4-0.5-0.9-0.7-1.4c-1-1.8-1.9-3.7-2.9-5.5c0,0-0.1-0.1-0.1-0.1c0-3.8,0-7.7,0-11.5
			c0-0.4,0.2-0.6,0.5-0.6c0.9,0,1.8,0,2.7,0c0.3,0,0.5,0.2,0.5,0.5C183.8,26.8,183.8,33,183.8,39.3
			C183.8,39.2,183.8,39.3,183.8,39.3z"/>
		<path class="st0" d="M193,24.4c-0.1-0.4-0.1-0.7-0.2-1.1c-0.3-1.2-1-2.2-2.1-2.8c-0.8-0.4-1.7-0.6-2.6-0.6c-2.4,0-4.9,0-7.3,0
			c-0.1,0-0.2,0-0.2,0c0.1,0.1,0.2,0.1,0.3,0.1c0.7,0,1.4,0,2.1,0c0.7,0,0.8,0.1,0.8,0.8c0,5.1,0,10.1,0,15.2c0,1,0,2.1,0,3.1
			c0,0.3,0,0.5-0.3,0.7c0,0-0.1,0.1,0,0.1c1.5,0,3.1,0,4.6,0c0.5,0,0.9,0,1.4-0.1c1.7-0.4,2.8-1.4,3.3-3.2c0.1-0.4,0.1-0.7,0.2-1.1
			c0-0.1,0-0.2,0-0.3c0-0.1,0-0.2,0-0.3c0-3.4,0-6.8,0-10.2c0-0.1,0-0.2,0-0.3C193,24.5,193,24.5,193,24.4z M189.2,35
			c0,0.5-0.1,1-0.6,1.3c-0.3,0.2-0.6,0.2-1,0.2c-1.1,0-2.2,0-3.3,0c-0.3,0-0.4-0.1-0.4-0.4c0-2.1,0-4.1,0-6.2c0-2,0-4.1,0-6.1
			c0-0.3,0.1-0.4,0.4-0.4c1.1,0,2.3,0,3.4,0c0.4,0,0.8,0.1,1.1,0.4c0.3,0.3,0.4,0.7,0.4,1.1C189.2,28.4,189.2,31.7,189.2,35z"/>
		<path class="st0" d="M170.3,36.7c0-0.1,0-0.2,0-0.3c0-5.1,0-10.2,0-15.3c0-0.1,0-0.2,0-0.3c0.1,0.2,0.2,0.3,0.3,0.5
			c0.7,1.4,1.5,2.8,2.2,4.2c0.4,0.7,0.7,1.4,1.1,2.1c0.1,0.1,0.1,0.3,0.1,0.4c0,3.8,0,7.6,0,11.4c0,0,0,0,0,0.1
			c-0.1,0.3-0.2,0.4-0.5,0.5c-0.6,0-1.3,0-1.9,0c-0.2,0-0.5,0-0.7,0c-0.4,0-0.5-0.2-0.5-0.6C170.3,38.5,170.3,37.6,170.3,36.7z"/>
	</g>
</g>
<path id="Combined-Shape_3_" class="st1" d="M17.2,45.2c7.6-3.3,15-6.5,22.6-9.8c-2.6-3-5.1-5.9-7.6-8.7c3.7-3.9,7.3-7.6,11-11.5
	c-7.5,3.3-15,6.5-22.6,9.8c2.6,3,5.2,5.9,7.6,8.7C24.5,37.6,20.9,41.4,17.2,45.2z"/>
<g>
	<g>
		<linearGradient id="SVGID_1_" gradientUnits="userSpaceOnUse" x1="75.2801" y1="30.0097" x2="130.4482" y2="29.55">
			<stop  offset="0" style="stop-color:#73838E"/>
			<stop  offset="7.312994e-02" style="stop-color:#788792;stop-opacity:0.9415"/>
			<stop  offset="0.1605" style="stop-color:#87949E;stop-opacity:0.8716"/>
			<stop  offset="0.2551" style="stop-color:#9FAAB1;stop-opacity:0.7959"/>
			<stop  offset="0.3549" style="stop-color:#C0C7CC;stop-opacity:0.7161"/>
			<stop  offset="0.4577" style="stop-color:#EBEDEF;stop-opacity:0.6338"/>
			<stop  offset="0.5" style="stop-color:#FFFFFF;stop-opacity:0.6"/>
			<stop  offset="0.5423" style="stop-color:#EBEDEF;stop-opacity:0.6338"/>
			<stop  offset="0.6451" style="stop-color:#C0C7CC;stop-opacity:0.7161"/>
			<stop  offset="0.7449" style="stop-color:#9FAAB1;stop-opacity:0.7959"/>
			<stop  offset="0.8395" style="stop-color:#87949E;stop-opacity:0.8716"/>
			<stop  offset="0.9269" style="stop-color:#788792;stop-opacity:0.9415"/>
			<stop  offset="1" style="stop-color:#73838E"/>
		</linearGradient>
		<line class="st2" x1="128.9" y1="29.6" x2="125.9" y2="29.6"/>
		<linearGradient id="SVGID_2_" gradientUnits="userSpaceOnUse" x1="75.2783" y1="29.7911" x2="130.4463" y2="29.3314">
			<stop  offset="0" style="stop-color:#73838E"/>
			<stop  offset="7.312994e-02" style="stop-color:#788792;stop-opacity:0.9415"/>
			<stop  offset="0.1605" style="stop-color:#87949E;stop-opacity:0.8716"/>
			<stop  offset="0.2551" style="stop-color:#9FAAB1;stop-opacity:0.7959"/>
			<stop  offset="0.3549" style="stop-color:#C0C7CC;stop-opacity:0.7161"/>
			<stop  offset="0.4577" style="stop-color:#EBEDEF;stop-opacity:0.6338"/>
			<stop  offset="0.5" style="stop-color:#FFFFFF;stop-opacity:0.6"/>
			<stop  offset="0.5423" style="stop-color:#EBEDEF;stop-opacity:0.6338"/>
			<stop  offset="0.6451" style="stop-color:#C0C7CC;stop-opacity:0.7161"/>
			<stop  offset="0.7449" style="stop-color:#9FAAB1;stop-opacity:0.7959"/>
			<stop  offset="0.8395" style="stop-color:#87949E;stop-opacity:0.8716"/>
			<stop  offset="0.9269" style="stop-color:#788792;stop-opacity:0.9415"/>
			<stop  offset="1" style="stop-color:#73838E"/>
		</linearGradient>
		<line class="st3" x1="119.4" y1="29.6" x2="83.1" y2="29.6"/>
		<linearGradient id="SVGID_3_" gradientUnits="userSpaceOnUse" x1="75.2767" y1="29.6" x2="130.4447" y2="29.1402">
			<stop  offset="0" style="stop-color:#73838E"/>
			<stop  offset="7.312994e-02" style="stop-color:#788792;stop-opacity:0.9415"/>
			<stop  offset="0.1605" style="stop-color:#87949E;stop-opacity:0.8716"/>
			<stop  offset="0.2551" style="stop-color:#9FAAB1;stop-opacity:0.7959"/>
			<stop  offset="0.3549" style="stop-color:#C0C7CC;stop-opacity:0.7161"/>
			<stop  offset="0.4577" style="stop-color:#EBEDEF;stop-opacity:0.6338"/>
			<stop  offset="0.5" style="stop-color:#FFFFFF;stop-opacity:0.6"/>
			<stop  offset="0.5423" style="stop-color:#EBEDEF;stop-opacity:0.6338"/>
			<stop  offset="0.6451" style="stop-color:#C0C7CC;stop-opacity:0.7161"/>
			<stop  offset="0.7449" style="stop-color:#9FAAB1;stop-opacity:0.7959"/>
			<stop  offset="0.8395" style="stop-color:#87949E;stop-opacity:0.8716"/>
			<stop  offset="0.9269" style="stop-color:#788792;stop-opacity:0.9415"/>
			<stop  offset="1" style="stop-color:#73838E"/>
		</linearGradient>
		<line class="st4" x1="79.8" y1="29.6" x2="76.8" y2="29.6"/>
	</g>
</g>
<circle class="st5" cx="175.7" cy="30" r="29"/>
<circle class="st5" cx="30" cy="30" r="29"/>
</svg>
